<mxfile host="app.diagrams.net" modified="2020-10-31T02:33:54.611Z" agent="5.0 (Windows NT 10.0; Win64; x64) AppleWebKit/537.36 (KHTML, like Gecko) Chrome/86.0.4240.111 Safari/537.36" etag="ZHQeCILeS4SUowrj0jjW" version="13.8.8" type="github">
  <diagram id="C5RBs43oDa-KdzZeNtuy" name="Page-1">
    <mxGraphModel dx="1422" dy="794" grid="1" gridSize="10" guides="1" tooltips="1" connect="1" arrows="1" fold="1" page="1" pageScale="1" pageWidth="827" pageHeight="1169" math="0" shadow="0">
      <root>
        <mxCell id="WIyWlLk6GJQsqaUBKTNV-0" />
        <mxCell id="WIyWlLk6GJQsqaUBKTNV-1" parent="WIyWlLk6GJQsqaUBKTNV-0" />
        <mxCell id="rRBWvVuNyYKn6d73LKwU-7" value="" style="edgeStyle=orthogonalEdgeStyle;rounded=0;orthogonalLoop=1;jettySize=auto;html=1;" edge="1" parent="WIyWlLk6GJQsqaUBKTNV-1" source="rRBWvVuNyYKn6d73LKwU-5" target="rRBWvVuNyYKn6d73LKwU-6">
          <mxGeometry relative="1" as="geometry" />
        </mxCell>
        <mxCell id="rRBWvVuNyYKn6d73LKwU-5" value="预约" style="rounded=0;whiteSpace=wrap;html=1;" vertex="1" parent="WIyWlLk6GJQsqaUBKTNV-1">
          <mxGeometry x="70" y="20" width="120" height="60" as="geometry" />
        </mxCell>
        <mxCell id="rRBWvVuNyYKn6d73LKwU-9" value="" style="edgeStyle=orthogonalEdgeStyle;rounded=0;orthogonalLoop=1;jettySize=auto;html=1;" edge="1" parent="WIyWlLk6GJQsqaUBKTNV-1" source="rRBWvVuNyYKn6d73LKwU-6" target="rRBWvVuNyYKn6d73LKwU-8">
          <mxGeometry relative="1" as="geometry" />
        </mxCell>
        <mxCell id="rRBWvVuNyYKn6d73LKwU-6" value="抢购" style="rounded=0;whiteSpace=wrap;html=1;" vertex="1" parent="WIyWlLk6GJQsqaUBKTNV-1">
          <mxGeometry x="70" y="160" width="120" height="60" as="geometry" />
        </mxCell>
        <mxCell id="rRBWvVuNyYKn6d73LKwU-11" value="" style="edgeStyle=orthogonalEdgeStyle;rounded=0;orthogonalLoop=1;jettySize=auto;html=1;" edge="1" parent="WIyWlLk6GJQsqaUBKTNV-1" source="rRBWvVuNyYKn6d73LKwU-8" target="rRBWvVuNyYKn6d73LKwU-10">
          <mxGeometry relative="1" as="geometry" />
        </mxCell>
        <mxCell id="rRBWvVuNyYKn6d73LKwU-8" value="支付" style="rounded=0;whiteSpace=wrap;html=1;" vertex="1" parent="WIyWlLk6GJQsqaUBKTNV-1">
          <mxGeometry x="140" y="300" width="120" height="60" as="geometry" />
        </mxCell>
        <mxCell id="rRBWvVuNyYKn6d73LKwU-15" value="" style="edgeStyle=orthogonalEdgeStyle;rounded=0;orthogonalLoop=1;jettySize=auto;html=1;" edge="1" parent="WIyWlLk6GJQsqaUBKTNV-1" source="rRBWvVuNyYKn6d73LKwU-10" target="rRBWvVuNyYKn6d73LKwU-14">
          <mxGeometry relative="1" as="geometry" />
        </mxCell>
        <mxCell id="rRBWvVuNyYKn6d73LKwU-10" value="等待卖家放行" style="rounded=0;whiteSpace=wrap;html=1;" vertex="1" parent="WIyWlLk6GJQsqaUBKTNV-1">
          <mxGeometry x="140" y="440" width="120" height="60" as="geometry" />
        </mxCell>
        <mxCell id="rRBWvVuNyYKn6d73LKwU-17" value="" style="edgeStyle=orthogonalEdgeStyle;rounded=0;orthogonalLoop=1;jettySize=auto;html=1;" edge="1" parent="WIyWlLk6GJQsqaUBKTNV-1" source="rRBWvVuNyYKn6d73LKwU-14" target="rRBWvVuNyYKn6d73LKwU-16">
          <mxGeometry relative="1" as="geometry" />
        </mxCell>
        <mxCell id="rRBWvVuNyYKn6d73LKwU-19" value="" style="edgeStyle=orthogonalEdgeStyle;rounded=0;orthogonalLoop=1;jettySize=auto;html=1;" edge="1" parent="WIyWlLk6GJQsqaUBKTNV-1" source="rRBWvVuNyYKn6d73LKwU-14" target="rRBWvVuNyYKn6d73LKwU-18">
          <mxGeometry relative="1" as="geometry" />
        </mxCell>
        <mxCell id="rRBWvVuNyYKn6d73LKwU-14" value="卖家放行" style="rhombus;whiteSpace=wrap;html=1;rounded=0;" vertex="1" parent="WIyWlLk6GJQsqaUBKTNV-1">
          <mxGeometry x="140" y="570" width="120" height="70" as="geometry" />
        </mxCell>
        <mxCell id="rRBWvVuNyYKn6d73LKwU-16" value="申诉" style="whiteSpace=wrap;html=1;rounded=0;" vertex="1" parent="WIyWlLk6GJQsqaUBKTNV-1">
          <mxGeometry x="340" y="575" width="120" height="60" as="geometry" />
        </mxCell>
        <mxCell id="rRBWvVuNyYKn6d73LKwU-18" value="交易完成" style="whiteSpace=wrap;html=1;rounded=0;" vertex="1" parent="WIyWlLk6GJQsqaUBKTNV-1">
          <mxGeometry x="140" y="725" width="120" height="60" as="geometry" />
        </mxCell>
        <mxCell id="rRBWvVuNyYKn6d73LKwU-21" value="No" style="text;html=1;align=center;verticalAlign=middle;resizable=0;points=[];autosize=1;" vertex="1" parent="WIyWlLk6GJQsqaUBKTNV-1">
          <mxGeometry x="280" y="585" width="30" height="20" as="geometry" />
        </mxCell>
        <mxCell id="rRBWvVuNyYKn6d73LKwU-22" value="Yes" style="text;html=1;align=center;verticalAlign=middle;resizable=0;points=[];autosize=1;" vertex="1" parent="WIyWlLk6GJQsqaUBKTNV-1">
          <mxGeometry x="200" y="670" width="40" height="20" as="geometry" />
        </mxCell>
        <mxCell id="rRBWvVuNyYKn6d73LKwU-28" style="edgeStyle=orthogonalEdgeStyle;rounded=0;orthogonalLoop=1;jettySize=auto;html=1;exitX=0.5;exitY=1;exitDx=0;exitDy=0;entryX=0.5;entryY=0;entryDx=0;entryDy=0;" edge="1" parent="WIyWlLk6GJQsqaUBKTNV-1" source="rRBWvVuNyYKn6d73LKwU-23" target="rRBWvVuNyYKn6d73LKwU-8">
          <mxGeometry relative="1" as="geometry" />
        </mxCell>
        <mxCell id="rRBWvVuNyYKn6d73LKwU-23" value="未预约抢购" style="whiteSpace=wrap;html=1;" vertex="1" parent="WIyWlLk6GJQsqaUBKTNV-1">
          <mxGeometry x="210" y="160" width="120" height="60" as="geometry" />
        </mxCell>
      </root>
    </mxGraphModel>
  </diagram>
</mxfile>
